<svg width="26" height="30" viewBox="0 0 26 30" fill="none" xmlns="http://www.w3.org/2000/svg">
<path d="M2.6 5.2125V21.25C2.59975 22.8368 3.22721 24.3643 4.3551 25.5226C5.483 26.6809 7.02689 27.3834 8.6736 27.4875L9.1 27.5H20.5764C20.3076 28.231 19.8097 28.864 19.1513 29.3117C18.4929 29.7594 17.7064 29.9999 16.9 30H7.8C5.73131 30 3.74735 29.2098 2.28457 27.8033C0.821784 26.3968 5.36215e-07 24.4891 5.36215e-07 22.5V8.75C-0.000422448 7.97418 0.249412 7.21734 0.715073 6.58377C1.18073 5.95021 1.8393 5.47111 2.6 5.2125ZM22.1 0C23.1343 0 24.1263 0.395088 24.8577 1.09835C25.5891 1.80161 26 2.75544 26 3.75V21.25C26 22.2446 25.5891 23.1984 24.8577 23.9017C24.1263 24.6049 23.1343 25 22.1 25H9.1C8.06566 25 7.07368 24.6049 6.34228 23.9017C5.61089 23.1984 5.2 22.2446 5.2 21.25V3.75C5.2 2.75544 5.61089 1.80161 6.34228 1.09835C7.07368 0.395088 8.06566 0 9.1 0H22.1ZM22.1 2.5H9.1C8.75522 2.5 8.42456 2.6317 8.18076 2.86612C7.93696 3.10054 7.8 3.41848 7.8 3.75V21.25C7.8 21.5815 7.93696 21.8995 8.18076 22.1339C8.42456 22.3683 8.75522 22.5 9.1 22.5H22.1C22.4448 22.5 22.7754 22.3683 23.0192 22.1339C23.263 21.8995 23.4 21.5815 23.4 21.25V3.75C23.4 3.41848 23.263 3.10054 23.0192 2.86612C22.7754 2.6317 22.4448 2.5 22.1 2.5Z" fill="#A5FF7B" fill-opacity="0.5"/>
</svg>
